<svg preserveAspectRatio="none" overflow="visible" style="display: block;" width="16.9951" height="17.0251" viewBox="0 0 16.9951 17.0251" fill="none" xmlns="http://www.w3.org/2000/svg">
<g id="outlined">
<g id="Union">
<path d="M13.0663 9.22473C13.0832 9.22342 13.1011 9.22975 13.1037 9.24589C13.3448 10.7178 14.6391 12.6325 16.9758 13.0903C16.992 13.0936 16.9971 13.1113 16.9945 13.1269C16.9953 13.141 16.9895 13.1548 16.975 13.1578C14.6383 13.6157 13.344 15.5312 13.1029 17.0031C13.1001 17.0188 13.0829 17.0261 13.0663 17.025C13.0497 17.0261 13.0309 17.0187 13.028 17.0031C12.7868 15.5312 11.4932 13.6157 9.15676 13.1578C9.14119 13.1546 9.13534 13.1387 9.13723 13.1237C9.13566 13.1088 9.14154 13.0934 9.15676 13.0903C11.4937 12.6325 12.7878 10.717 13.0288 9.24507C13.0318 9.22943 13.0496 9.22346 13.0663 9.22473Z" fill="url(#paint0_linear_0_47)"/>
<path d="M6.56317 0.000282921C6.59138 -0.00191151 6.62142 0.00913803 6.62584 0.0360902C7.02865 2.49452 9.19027 5.69322 13.0931 6.4578C13.1202 6.46339 13.1284 6.49195 13.124 6.51802C13.1255 6.54176 13.116 6.56599 13.0915 6.57092C9.18889 7.33575 7.02687 10.5343 6.62421 12.9926C6.61954 13.0188 6.59082 13.031 6.56317 13.0293H6.56155C6.53407 13.031 6.50462 13.0193 6.4997 12.9934C6.09719 10.535 3.93609 7.33576 0.0332257 6.57092C0.00731587 6.56552 -0.00238526 6.53823 0.000673632 6.51314C-0.00194043 6.48831 0.00793086 6.46231 0.0332257 6.45699C3.93634 5.69247 6.09778 2.49379 6.50051 0.0352764C6.50533 0.00895382 6.53532 -0.00177298 6.56317 0.000282921Z" fill="url(#paint1_linear_0_47)"/>
</g>
</g>
<defs>
<linearGradient id="paint0_linear_0_47" x1="8.49763" y1="1.17123e-05" x2="8.49763" y2="17.0251" gradientUnits="userSpaceOnUse">
<stop offset="0.158654" stop-color="#8E3EFF"/>
<stop offset="0.480769" stop-color="#399EFF"/>
<stop offset="1" stop-color="#34E4FF"/>
</linearGradient>
<linearGradient id="paint1_linear_0_47" x1="8.49763" y1="1.17123e-05" x2="8.49763" y2="17.0251" gradientUnits="userSpaceOnUse">
<stop offset="0.158654" stop-color="#8E3EFF"/>
<stop offset="0.480769" stop-color="#399EFF"/>
<stop offset="1" stop-color="#34E4FF"/>
</linearGradient>
</defs>
</svg>
